Nepomuk-Italic.220411-2225.ufo
<glyph name="exclam" format="2">
  <advance width="297"/>
  <unicode hex="0021"/>
  <outline>
    <contour>
      <point x="20" y="55" type="curve" smooth="yes"/>
      <point x="20" y="21"/>
      <point x="48" y="-7"/>
      <point x="82" y="-7" type="curve" smooth="yes"/>
      <point x="116" y="-7"/>
      <point x="144" y="21"/>
      <point x="144" y="55" type="curve" smooth="yes"/>
      <point x="144" y="89"/>
      <point x="116" y="117"/>
      <point x="82" y="117" type="curve" smooth="yes"/>
      <point x="48" y="117"/>
      <point x="20" y="89"/>
    </contour>
    <contour>
      <point x="271" y="692" type="curve" smooth="yes"/>
      <point x="231" y="692"/>
      <point x="202" y="650"/>
      <point x="192" y="592" type="curve" smooth="yes"/>
      <point x="175" y="501"/>
      <point x="173" y="400"/>
      <point x="117" y="227" type="curve"/>
      <point x="149" y="217" type="line"/>
      <point x="208" y="396"/>
      <point x="262" y="464"/>
      <point x="307" y="552" type="curve" smooth="yes"/>
      <point x="319" y="576"/>
      <point x="327" y="603"/>
      <point x="327" y="627" type="curve" smooth="yes"/>
      <point x="327" y="662"/>
      <point x="310" y="692"/>
    </contour>
  </outline>
</glyph>
<glyph name="parenleft" format="2">
  <advance width="355"/>
  <unicode hex="0028"/>
  <outline>
    <contour>
      <point x="141" y="117" type="curve" smooth="yes"/>
      <point x="141" y="366"/>
      <point x="258" y="554"/>
      <point x="405" y="647" type="curve"/>
      <point x="405" y="678" type="line"/>
      <point x="211" y="589"/>
      <point x="70" y="419"/>
      <point x="70" y="180" type="curve" smooth="yes"/>
      <point x="70" y="59"/>
      <point x="117" y="-50"/>
      <point x="176" y="-140" type="curve"/>
      <point x="206" y="-140" type="line"/>
      <point x="169" y="-67"/>
      <point x="141" y="20"/>
    </contour>
  </outline>
</glyph>
<glyph name="parenright" format="2">
  <advance width="355"/>
  <unicode hex="0029"/>
  <outline>
    <contour>
      <point x="214" y="421" type="curve" smooth="yes"/>
      <point x="214" y="172"/>
      <point x="97" y="-16"/>
      <point x="-50" y="-109" type="curve"/>
      <point x="-50" y="-140" type="line"/>
      <point x="144" y="-51"/>
      <point x="285" y="119"/>
      <point x="285" y="358" type="curve" smooth="yes"/>
      <point x="285" y="479"/>
      <point x="238" y="588"/>
      <point x="179" y="678" type="curve"/>
      <point x="149" y="678" type="line"/>
      <point x="186" y="605"/>
      <point x="214" y="518"/>
    </contour>
  </outline>
</glyph>
<glyph name="zero" format="2">
  <advance width="540"/>
  <unicode hex="0030"/>
  <outline>
    <contour>
      <point x="381" y="659" type="curve" smooth="yes"/>
      <point x="433" y="659"/>
      <point x="450" y="611"/>
      <point x="450" y="551" type="curve" smooth="yes"/>
      <point x="450" y="492"/>
      <point x="433" y="421"/>
      <point x="418" y="375" type="curve" smooth="yes"/>
      <point x="385" y="270" type="line" smooth="yes"/>
      <point x="334" y="105"/>
      <point x="259" y="21"/>
      <point x="199" y="21" type="curve" smooth="yes"/>
      <point x="144" y="21"/>
      <point x="126" y="70"/>
      <point x="126" y="130" type="curve" smooth="yes"/>
      <point x="126" y="188"/>
      <point x="143" y="257"/>
      <point x="158" y="303" type="curve" smooth="yes"/>
      <point x="193" y="408" type="line"/>
      <point x="246" y="573"/>
      <point x="321" y="659"/>
    </contour>
    <contour>
      <point x="35" y="217" type="curve" smooth="yes"/>
      <point x="35" y="88"/>
      <point x="90" y="-12"/>
      <point x="202" y="-12" type="curve" smooth="yes"/>
      <point x="356" y="-12"/>
      <point x="545" y="218"/>
      <point x="545" y="461" type="curve" smooth="yes"/>
      <point x="545" y="587"/>
      <point x="490" y="692"/>
      <point x="380" y="692" type="curve" smooth="yes"/>
      <point x="224" y="692"/>
      <point x="35" y="458"/>
    </contour>
  </outline>
</glyph>
<glyph name="question" format="2">
  <advance width="377"/>
  <unicode hex="003F"/>
  <outline>
    <contour>
      <point x="60" y="55" type="curve" smooth="yes"/>
      <point x="60" y="21"/>
      <point x="88" y="-7"/>
      <point x="122" y="-7" type="curve" smooth="yes"/>
      <point x="156" y="-7"/>
      <point x="184" y="21"/>
      <point x="184" y="55" type="curve" smooth="yes"/>
      <point x="184" y="89"/>
      <point x="156" y="117"/>
      <point x="122" y="117" type="curve" smooth="yes"/>
      <point x="88" y="117"/>
      <point x="60" y="89"/>
    </contour>
    <contour>
      <point x="192" y="221" type="curve" smooth="yes"/>
      <point x="167" y="221"/>
      <point x="155" y="239"/>
      <point x="155" y="268" type="curve" smooth="yes"/>
      <point x="155" y="316"/>
      <point x="210" y="358"/>
      <point x="282" y="421" type="curve" smooth="yes"/>
      <point x="349" y="481"/>
      <point x="397" y="520"/>
      <point x="397" y="590" type="curve" smooth="yes"/>
      <point x="397" y="656"/>
      <point x="338" y="692"/>
      <point x="276" y="692" type="curve" smooth="yes"/>
      <point x="199" y="692"/>
      <point x="137" y="644"/>
      <point x="125" y="572" type="curve"/>
      <point x="156" y="564" type="line"/>
      <point x="168" y="631"/>
      <point x="222" y="655"/>
      <point x="260" y="655" type="curve" smooth="yes"/>
      <point x="294" y="655"/>
      <point x="316" y="631"/>
      <point x="316" y="605" type="curve" smooth="yes"/>
      <point x="316" y="561"/>
      <point x="276" y="519"/>
      <point x="204" y="463" type="curve" smooth="yes"/>
      <point x="133" y="407"/>
      <point x="89" y="357"/>
      <point x="89" y="291" type="curve" smooth="yes"/>
      <point x="89" y="233"/>
      <point x="130" y="190"/>
      <point x="183" y="190" type="curve" smooth="yes"/>
      <point x="237" y="190"/>
      <point x="288" y="224"/>
      <point x="310" y="272" type="curve"/>
      <point x="280" y="284" type="line"/>
      <point x="262" y="249"/>
      <point x="229" y="221"/>
    </contour>
  </outline>
</glyph>
<glyph name="G" format="2">
  <advance width="655"/>
  <unicode hex="0047"/>
  <anchor x="439" y="718" name="accent1"/>
  <outline>
    <contour>
      <point x="558" y="436" type="curve"/>
      <point x="601" y="436" type="line"/>
      <point x="675" y="692" type="line"/>
      <point x="637" y="692" type="line"/>
      <point x="626" y="678" type="line" smooth="yes"/>
      <point x="587" y="628"/>
      <point x="568" y="629"/>
      <point x="540" y="650" type="curve" smooth="yes"/>
      <point x="507" y="674"/>
      <point x="467" y="692"/>
      <point x="415" y="692" type="curve" smooth="yes"/>
      <point x="267" y="692"/>
      <point x="126" y="536"/>
      <point x="80" y="371" type="curve" smooth="yes"/>
      <point x="67" y="324"/>
      <point x="60" y="279"/>
      <point x="60" y="237" type="curve" smooth="yes"/>
      <point x="60" y="112"/>
      <point x="132" y="-12"/>
      <point x="255" y="-12" type="curve" smooth="yes"/>
      <point x="304" y="-12"/>
      <point x="350" y="10"/>
      <point x="389" y="37" type="curve" smooth="yes"/>
      <point x="428" y="64"/>
      <point x="447" y="74"/>
      <point x="455" y="7" type="curve" smooth="yes"/>
      <point x="457" y="-12" type="line"/>
      <point x="486" y="-12" type="line"/>
      <point x="567" y="273" type="line" smooth="yes"/>
      <point x="577" y="308"/>
      <point x="597" y="323"/>
      <point x="632" y="323" type="curve" smooth="yes"/>
      <point x="662" y="323" type="line"/>
      <point x="672" y="358" type="line"/>
      <point x="393" y="358" type="line"/>
      <point x="383" y="323" type="line"/>
      <point x="433" y="323" type="line" smooth="yes"/>
      <point x="468" y="323"/>
      <point x="479" y="308"/>
      <point x="469" y="273" type="curve" smooth="yes"/>
      <point x="444" y="188" type="line" smooth="yes"/>
      <point x="411" y="74"/>
      <point x="327" y="26"/>
      <point x="267" y="26" type="curve" smooth="yes"/>
      <point x="192" y="26"/>
      <point x="170" y="88"/>
      <point x="170" y="160" type="curve" smooth="yes"/>
      <point x="170" y="210"/>
      <point x="180" y="265"/>
      <point x="192" y="306" type="curve" smooth="yes"/>
      <point x="219" y="402" type="line" smooth="yes"/>
      <point x="245" y="494"/>
      <point x="318" y="658"/>
      <point x="421" y="658" type="curve" smooth="yes"/>
      <point x="498" y="658"/>
      <point x="580" y="600"/>
    </contour>
  </outline>
</glyph>
<glyph name="K" format="2">
  <advance width="742"/>
  <unicode hex="004B"/>
  <outline>
    <contour>
      <point x="245" y="242" type="line"/>
      <point x="357" y="334" type="line"/>
      <point x="459" y="88" type="line" smooth="yes"/>
      <point x="472" y="56"/>
      <point x="455" y="37"/>
      <point x="422" y="37" type="curve" smooth="yes"/>
      <point x="399" y="37" type="line"/>
      <point x="389" y="0" type="line"/>
      <point x="657" y="0" type="line"/>
      <point x="667" y="37" type="line"/>
      <point x="642" y="37" type="line" smooth="yes"/>
      <point x="583" y="37"/>
      <point x="575" y="60"/>
      <point x="557" y="104" type="curve" smooth="yes"/>
      <point x="435" y="398" type="line"/>
      <point x="677" y="598" type="line" smooth="yes"/>
      <point x="720" y="633"/>
      <point x="760" y="643"/>
      <point x="786" y="643" type="curve" smooth="yes"/>
      <point x="801" y="643" type="line"/>
      <point x="812" y="680" type="line"/>
      <point x="547" y="680" type="line"/>
      <point x="536" y="643" type="line"/>
      <point x="564" y="643" type="line" smooth="yes"/>
      <point x="640" y="643"/>
      <point x="622" y="604"/>
      <point x="566" y="558" type="curve" smooth="yes"/>
      <point x="264" y="309" type="line"/>
      <point x="346" y="595" type="line" smooth="yes"/>
      <point x="356" y="630"/>
      <point x="375" y="645"/>
      <point x="410" y="645" type="curve" smooth="yes"/>
      <point x="445" y="645" type="line"/>
      <point x="455" y="680" type="line"/>
      <point x="175" y="680" type="line"/>
      <point x="165" y="645" type="line"/>
      <point x="210" y="645" type="line" smooth="yes"/>
      <point x="245" y="645"/>
      <point x="256" y="630"/>
      <point x="246" y="595" type="curve" smooth="yes"/>
      <point x="99" y="85" type="line" smooth="yes"/>
      <point x="89" y="50"/>
      <point x="70" y="35"/>
      <point x="35" y="35" type="curve" smooth="yes"/>
      <point x="0" y="35" type="line"/>
      <point x="-10" y="0" type="line"/>
      <point x="270" y="0" type="line"/>
      <point x="280" y="35" type="line"/>
      <point x="235" y="35" type="line" smooth="yes"/>
      <point x="200" y="35"/>
      <point x="190" y="50"/>
      <point x="200" y="85" type="curve" smooth="yes"/>
    </contour>
  </outline>
</glyph>
<glyph name="Q" format="2">
  <advance width="646"/>
  <unicode hex="0051"/>
  <outline>
    <contour>
      <point x="444" y="690" type="curve" smooth="yes"/>
      <point x="434" y="691"/>
      <point x="425" y="692"/>
      <point x="415" y="692" type="curve" smooth="yes"/>
      <point x="267" y="692"/>
      <point x="127" y="536"/>
      <point x="80" y="371" type="curve" smooth="yes"/>
      <point x="67" y="324"/>
      <point x="60" y="279"/>
      <point x="60" y="237" type="curve" smooth="yes"/>
      <point x="60" y="106"/>
      <point x="123" y="7"/>
      <point x="243" y="-10" type="curve" smooth="yes"/>
      <point x="253" y="-11"/>
      <point x="263" y="-12"/>
      <point x="272" y="-12" type="curve" smooth="yes"/>
      <point x="280" y="-12"/>
      <point x="289" y="-12"/>
      <point x="297" y="-11" type="curve"/>
      <point x="277" y="-97"/>
      <point x="307" y="-172"/>
      <point x="396" y="-172" type="curve" smooth="yes"/>
      <point x="468" y="-172"/>
      <point x="515" y="-109"/>
      <point x="536" y="-43" type="curve"/>
      <point x="505" y="-34" type="line"/>
      <point x="488" y="-85"/>
      <point x="452" y="-126"/>
      <point x="418" y="-126" type="curve" smooth="yes"/>
      <point x="374" y="-126"/>
      <point x="372" y="-64"/>
      <point x="391" y="20" type="curve"/>
      <point x="482" y="68"/>
      <point x="569" y="178"/>
      <point x="606" y="306" type="curve" smooth="yes"/>
      <point x="619" y="353"/>
      <point x="626" y="399"/>
      <point x="626" y="442" type="curve" smooth="yes"/>
      <point x="626" y="573"/>
      <point x="563" y="673"/>
    </contour>
    <contour>
      <point x="181" y="98" type="curve"/>
      <point x="174" y="98" type="line" name="hr01"/>
      <point x="156" y="163"/>
      <point x="168" y="258"/>
      <point x="182" y="309" type="curve" smooth="yes"/>
      <point x="209" y="405" type="line" smooth="yes"/>
      <point x="235" y="497"/>
      <point x="318" y="658"/>
      <point x="421" y="658" type="curve" smooth="yes"/>
      <point x="551" y="658"/>
      <point x="528" y="457"/>
      <point x="502" y="366" type="curve" smooth="yes"/>
      <point x="474" y="270" type="line" smooth="yes"/>
      <point x="457" y="212"/>
      <point x="431" y="151"/>
      <point x="405" y="104" type="curve"/>
      <point x="395" y="104" type="line"/>
      <point x="399" y="185"/>
      <point x="351" y="229"/>
      <point x="293" y="229" type="curve" smooth="yes"/>
      <point x="230" y="229"/>
      <point x="182" y="165"/>
    </contour>
    <contour>
      <point x="273" y="27" type="curve" smooth="yes"/>
      <point x="230" y="27"/>
      <point x="210" y="61"/>
      <point x="210" y="108" type="curve" smooth="yes"/>
      <point x="210" y="152"/>
      <point x="242" y="201"/>
      <point x="281" y="201" type="curve" smooth="yes"/>
      <point x="361" y="201"/>
      <point x="331" y="93"/>
      <point x="315" y="50" type="curve" smooth="yes"/>
      <point x="313" y="45"/>
      <point x="312" y="40"/>
      <point x="310" y="35" type="curve"/>
      <point x="296" y="29"/>
      <point x="288" y="27"/>
    </contour>
  </outline>
</glyph>
<glyph name="backslash" format="2">
  <advance width="316"/>
  <unicode hex="005C"/>
  <outline>
    <contour>
      <point x="75" y="754" type="line"/>
      <point x="169" y="-123" type="line"/>
      <point x="216" y="-123" type="line"/>
      <point x="122" y="754" type="line"/>
    </contour>
  </outline>
</glyph>
<glyph name="l" format="2">
  <advance width="308"/>
  <unicode hex="006C"/>
  <outline>
    <contour>
      <point x="176" y="576" type="curve" smooth="yes"/>
      <point x="35" y="142" type="line" smooth="yes"/>
      <point x="28" y="122"/>
      <point x="25" y="102"/>
      <point x="25" y="84" type="curve" smooth="yes"/>
      <point x="25" y="30"/>
      <point x="55" y="-8"/>
      <point x="112" y="-8" type="curve" smooth="yes"/>
      <point x="172" y="-8"/>
      <point x="244" y="47"/>
      <point x="282" y="168" type="curve"/>
      <point x="250" y="176" type="line"/>
      <point x="215" y="72"/>
      <point x="156" y="36"/>
      <point x="131" y="36" type="curve" smooth="yes"/>
      <point x="94" y="36"/>
      <point x="102" y="71"/>
      <point x="125" y="142" type="curve" smooth="yes"/>
      <point x="298" y="674" type="line"/>
      <point x="107" y="662" type="line"/>
      <point x="98" y="631" type="line"/>
      <point x="135" y="631" type="line" smooth="yes"/>
      <point x="166" y="631"/>
      <point x="186" y="608"/>
    </contour>
  </outline>
</glyph>
<glyph name="m" format="2">
  <advance width="774"/>
  <unicode hex="006D"/>
  <outline>
    <contour>
      <point x="480" y="337" type="curve"/>
      <point x="472" y="337" type="line"/>
      <point x="483" y="404"/>
      <point x="457" y="462"/>
      <point x="401" y="462" type="curve" smooth="yes"/>
      <point x="352" y="462"/>
      <point x="283" y="392"/>
      <point x="247" y="341" type="curve"/>
      <point x="239" y="341" type="line"/>
      <point x="257" y="400"/>
      <point x="241" y="462"/>
      <point x="177" y="462" type="curve" smooth="yes"/>
      <point x="108" y="462"/>
      <point x="61" y="393"/>
      <point x="35" y="310" type="curve"/>
      <point x="63" y="301" type="line"/>
      <point x="82" y="358"/>
      <point x="118" y="418"/>
      <point x="145" y="418" type="curve" smooth="yes"/>
      <point x="182" y="418"/>
      <point x="167" y="382"/>
      <point x="144" y="312" type="curve" smooth="yes"/>
      <point x="43" y="0" type="line"/>
      <point x="133" y="0" type="line"/>
      <point x="193" y="186" type="line" smooth="yes"/>
      <point x="240" y="330"/>
      <point x="358" y="425"/>
      <point x="382" y="425" type="curve" smooth="yes"/>
      <point x="412" y="425"/>
      <point x="402" y="365"/>
      <point x="369" y="265" type="curve" smooth="yes"/>
      <point x="283" y="0" type="line"/>
      <point x="373" y="0" type="line"/>
      <point x="437" y="196" type="line" smooth="yes"/>
      <point x="477" y="320"/>
      <point x="583" y="424" name="hr01"/>
      <point x="612" y="424" type="curve" smooth="yes"/>
      <point x="645" y="424"/>
      <point x="635" y="367"/>
      <point x="598" y="269" type="curve" smooth="yes"/>
      <point x="549" y="138" type="line" smooth="yes"/>
      <point x="517" y="55"/>
      <point x="536" y="-12"/>
      <point x="606" y="-12" type="curve" smooth="yes"/>
      <point x="674" y="-12"/>
      <point x="723" y="58"/>
      <point x="749" y="141" type="curve"/>
      <point x="720" y="149" type="line"/>
      <point x="701" y="92"/>
      <point x="665" y="32"/>
      <point x="638" y="32" type="curve" smooth="yes"/>
      <point x="601" y="32"/>
      <point x="611" y="65"/>
      <point x="639" y="138" type="curve" smooth="yes"/>
      <point x="688" y="269" type="line" smooth="yes"/>
      <point x="730" y="380"/>
      <point x="704" y="462"/>
      <point x="634" y="462" type="curve" smooth="yes"/>
      <point x="587" y="462"/>
      <point x="530" y="408"/>
    </contour>
  </outline>
</glyph>
<glyph name="w" format="2">
  <advance width="694"/>
  <unicode hex="0077"/>
  <anchor x="419" y="515" name="accent1"/>
  <outline>
    <contour>
      <point x="319" y="136" type="curve"/>
      <point x="329" y="136" type="line"/>
      <point x="316" y="48"/>
      <point x="346" y="-12"/>
      <point x="427" y="-12" type="curve" smooth="yes"/>
      <point x="540" y="-12"/>
      <point x="669" y="205"/>
      <point x="669" y="363" type="curve" smooth="yes"/>
      <point x="669" y="420"/>
      <point x="647" y="475"/>
      <point x="599" y="475" type="curve" smooth="yes"/>
      <point x="575" y="475"/>
      <point x="553" y="448"/>
      <point x="553" y="418" type="curve" smooth="yes"/>
      <point x="553" y="387"/>
      <point x="571" y="359"/>
      <point x="587" y="333" type="curve" smooth="yes"/>
      <point x="602" y="308"/>
      <point x="610" y="294" name="hr01"/>
      <point x="610" y="273" type="curve" smooth="yes"/>
      <point x="610" y="186"/>
      <point x="506" y="34"/>
      <point x="441" y="34" type="curve" smooth="yes"/>
      <point x="390" y="34"/>
      <point x="399" y="118"/>
      <point x="422" y="212" type="curve"/>
      <point x="486" y="450" type="line"/>
      <point x="397" y="450" type="line"/>
      <point x="352" y="281" type="line" smooth="yes"/>
      <point x="320" y="161"/>
      <point x="235" y="33"/>
      <point x="184" y="33" type="curve" smooth="yes"/>
      <point x="134" y="33"/>
      <point x="169" y="126"/>
      <point x="204" y="216" type="curve" smooth="yes"/>
      <point x="240" y="312" type="line" smooth="yes"/>
      <point x="272" y="395"/>
      <point x="245" y="462"/>
      <point x="175" y="462" type="curve" smooth="yes"/>
      <point x="99" y="462"/>
      <point x="41" y="391"/>
      <point x="15" y="308" type="curve"/>
      <point x="44" y="302" type="line"/>
      <point x="66" y="369"/>
      <point x="114" y="418"/>
      <point x="147" y="418" type="curve" smooth="yes"/>
      <point x="180" y="418"/>
      <point x="178" y="385"/>
      <point x="150" y="312" type="curve" smooth="yes"/>
      <point x="117" y="225" type="line" smooth="yes"/>
      <point x="71" y="108"/>
      <point x="66" y="-12"/>
      <point x="161" y="-12" type="curve" smooth="yes"/>
      <point x="214" y="-12"/>
      <point x="279" y="55"/>
    </contour>
  </outline>
</glyph>
<glyph name="yen" format="2">
  <advance width="594"/>
  <unicode hex="00A5"/>
  <outline>
    <contour>
      <point x="75" y="33" type="line"/>
      <point x="153" y="33" type="line" smooth="yes"/>
      <point x="172" y="33"/>
      <point x="183" y="42"/>
      <point x="188" y="61" type="curve" smooth="yes"/>
      <point x="229" y="211" type="line"/>
      <point x="86" y="211" type="line"/>
      <point x="95" y="244" type="line"/>
      <point x="239" y="244" type="line"/>
      <point x="255" y="305" type="line"/>
      <point x="112" y="305" type="line"/>
      <point x="121" y="338" type="line"/>
      <point x="258" y="338" type="line"/>
      <point x="195" y="628" type="line"/>
      <point x="187" y="655"/>
      <point x="181" y="668"/>
      <point x="160" y="668" type="curve" smooth="yes"/>
      <point x="95" y="668" type="line"/>
      <point x="104" y="700" type="line"/>
      <point x="371" y="700" type="line"/>
      <point x="361" y="668" type="line"/>
      <point x="319" y="668" type="line" smooth="yes"/>
      <point x="301" y="668"/>
      <point x="291" y="662"/>
      <point x="288" y="650" type="curve"/>
      <point x="287" y="649"/>
      <point x="287" y="646"/>
      <point x="287" y="641" type="curve" smooth="yes"/>
      <point x="287" y="636"/>
      <point x="288" y="630"/>
      <point x="289" y="625" type="curve" smooth="yes"/>
      <point x="343" y="367" type="line"/>
      <point x="515" y="575" type="line"/>
      <point x="524" y="588"/>
      <point x="537" y="610"/>
      <point x="537" y="627" type="curve" smooth="yes"/>
      <point x="537" y="646"/>
      <point x="527" y="668"/>
      <point x="503" y="668" type="curve" smooth="yes"/>
      <point x="460" y="668" type="line"/>
      <point x="469" y="700" type="line"/>
      <point x="707" y="700" type="line"/>
      <point x="697" y="668" type="line"/>
      <point x="658" y="668" type="line" smooth="yes"/>
      <point x="631" y="668"/>
      <point x="612" y="651"/>
      <point x="581" y="612" type="curve"/>
      <point x="354" y="338" type="line"/>
      <point x="498" y="338" type="line"/>
      <point x="488" y="305" type="line"/>
      <point x="345" y="305" type="line"/>
      <point x="329" y="244" type="line"/>
      <point x="472" y="244" type="line"/>
      <point x="463" y="211" type="line"/>
      <point x="319" y="211" type="line"/>
      <point x="279" y="61" type="line"/>
      <point x="277" y="56"/>
      <point x="276" y="52"/>
      <point x="276" y="50" type="curve"/>
      <point x="276" y="39"/>
      <point x="284" y="33"/>
      <point x="300" y="33" type="curve" smooth="yes"/>
      <point x="378" y="33" type="line"/>
      <point x="369" y="0" type="line"/>
      <point x="66" y="0" type="line"/>
    </contour>
  </outline>
</glyph>
<glyph name="copyright" format="2">
  <advance width="840"/>
  <unicode hex="00A9"/>
  <outline>
    <contour>
      <point x="444" y="-18" type="curve" smooth="yes"/>
      <point x="375" y="-18"/>
      <point x="313" y="-1"/>
      <point x="256" y="34" type="curve" smooth="yes"/>
      <point x="143" y="102"/>
      <point x="74" y="225"/>
      <point x="74" y="365" type="curve" smooth="yes"/>
      <point x="74" y="434"/>
      <point x="90" y="498"/>
      <point x="123" y="557" type="curve" smooth="yes"/>
      <point x="155" y="615"/>
      <point x="199" y="661"/>
      <point x="256" y="696" type="curve" smooth="yes"/>
      <point x="313" y="731"/>
      <point x="375" y="748"/>
      <point x="444" y="748" type="curve" smooth="yes"/>
      <point x="513" y="748"/>
      <point x="576" y="731"/>
      <point x="633" y="696" type="curve" smooth="yes"/>
      <point x="746" y="627"/>
      <point x="815" y="504"/>
      <point x="815" y="365" type="curve" smooth="yes"/>
      <point x="815" y="295"/>
      <point x="799" y="231"/>
      <point x="767" y="173" type="curve" smooth="yes"/>
      <point x="734" y="114"/>
      <point x="690" y="68"/>
      <point x="633" y="34" type="curve" smooth="yes"/>
      <point x="576" y="-1"/>
      <point x="513" y="-18"/>
    </contour>
    <contour>
      <point x="444" y="10" type="curve" smooth="yes"/>
      <point x="507" y="10"/>
      <point x="565" y="26"/>
      <point x="617" y="58" type="curve" smooth="yes"/>
      <point x="669" y="90"/>
      <point x="710" y="133"/>
      <point x="741" y="188" type="curve" smooth="yes"/>
      <point x="771" y="242"/>
      <point x="786" y="301"/>
      <point x="786" y="365" type="curve" smooth="yes"/>
      <point x="786" y="428"/>
      <point x="771" y="487"/>
      <point x="741" y="542" type="curve" smooth="yes"/>
      <point x="680" y="650"/>
      <point x="571" y="719"/>
      <point x="444" y="719" type="curve" smooth="yes"/>
      <point x="381" y="719"/>
      <point x="324" y="703"/>
      <point x="272" y="671" type="curve" smooth="yes"/>
      <point x="220" y="639"/>
      <point x="179" y="596"/>
      <point x="148" y="542" type="curve" smooth="yes"/>
      <point x="117" y="487"/>
      <point x="102" y="428"/>
      <point x="102" y="365" type="curve" smooth="yes"/>
      <point x="102" y="301"/>
      <point x="117" y="242"/>
      <point x="148" y="188" type="curve" smooth="yes"/>
      <point x="209" y="79"/>
      <point x="319" y="10"/>
    </contour>
    <contour>
      <point x="457" y="113" type="curve" smooth="yes"/>
      <point x="413" y="113"/>
      <point x="375" y="124"/>
      <point x="344" y="147" type="curve"/>
      <point x="281" y="191"/>
      <point x="250" y="269"/>
      <point x="250" y="346" type="curve" smooth="yes"/>
      <point x="250" y="498"/>
      <point x="329" y="604"/>
      <point x="459" y="604" type="curve" smooth="yes"/>
      <point x="486" y="604"/>
      <point x="514" y="593"/>
      <point x="543" y="570" type="curve" smooth="yes"/>
      <point x="551" y="563"/>
      <point x="554" y="563"/>
      <point x="563" y="563" type="curve" smooth="yes"/>
      <point x="575" y="563"/>
      <point x="586" y="582"/>
      <point x="586" y="598" type="curve"/>
      <point x="604" y="598" type="line"/>
      <point x="604" y="430" type="line"/>
      <point x="586" y="430" type="line"/>
      <point x="583" y="456"/>
      <point x="575" y="481"/>
      <point x="562" y="504" type="curve" smooth="yes"/>
      <point x="534" y="551"/>
      <point x="491" y="580"/>
      <point x="459" y="580" type="curve" smooth="yes"/>
      <point x="380" y="580"/>
      <point x="340" y="502"/>
      <point x="340" y="346" type="curve" smooth="yes"/>
      <point x="340" y="295"/>
      <point x="349" y="247"/>
      <point x="368" y="203" type="curve" smooth="yes"/>
      <point x="386" y="159"/>
      <point x="416" y="137"/>
      <point x="457" y="137" type="curve" smooth="yes"/>
      <point x="498" y="137"/>
      <point x="529" y="151"/>
      <point x="550" y="180" type="curve" smooth="yes"/>
      <point x="571" y="209"/>
      <point x="583" y="244"/>
      <point x="588" y="285" type="curve"/>
      <point x="612" y="285" type="line"/>
      <point x="609" y="240"/>
      <point x="595" y="200"/>
      <point x="569" y="165" type="curve" smooth="yes"/>
      <point x="542" y="130"/>
      <point x="505" y="113"/>
    </contour>
  </outline>
</glyph>
<glyph name="guillemotleft" format="2">
  <advance width="451"/>
  <unicode hex="00AB"/>
  <outline>
    <contour>
      <point x="185" y="18" type="line"/>
      <point x="160" y="67"/>
      <point x="138" y="107"/>
      <point x="119" y="140" type="curve" smooth="yes"/>
      <point x="100" y="173"/>
      <point x="78" y="204"/>
      <point x="55" y="233" type="curve"/>
      <point x="94" y="263"/>
      <point x="133" y="295"/>
      <point x="170" y="328" type="curve" smooth="yes"/>
      <point x="207" y="361"/>
      <point x="251" y="401"/>
      <point x="302" y="449" type="curve"/>
      <point x="313" y="438" type="line"/>
      <point x="147" y="233" type="line"/>
      <point x="203" y="29" type="line"/>
    </contour>
    <contour>
      <point x="288" y="76" type="line"/>
      <point x="261" y="144"/>
      <point x="234" y="196"/>
      <point x="207" y="233" type="curve"/>
      <point x="256" y="272"/>
      <point x="311" y="324"/>
      <point x="374" y="391" type="curve"/>
      <point x="385" y="381" type="line"/>
      <point x="275" y="233" type="line"/>
      <point x="305" y="86" type="line"/>
    </contour>
  </outline>
</glyph>
<glyph name="macron" format="2">
  <advance width="527"/>
  <unicode hex="00AF"/>
  <anchor x="348" y="492" name="_accent1"/>
  <outline>
    <contour>
      <point x="193" y="559" type="line"/>
      <point x="203" y="600" type="line"/>
      <point x="524" y="600" type="line"/>
      <point x="514" y="559" type="line"/>
    </contour>
  </outline>
</glyph>
<glyph name="paragraph" format="2">
  <advance width="553"/>
  <unicode hex="00B6"/>
  <outline>
    <contour>
      <point x="302" y="395" type="line"/>
      <point x="221" y="395"/>
      <point x="168" y="440"/>
      <point x="168" y="511" type="curve" smooth="yes"/>
      <point x="168" y="544"/>
      <point x="178" y="577"/>
      <point x="198" y="612" type="curve" smooth="yes"/>
      <point x="237" y="680"/>
      <point x="310" y="729"/>
      <point x="393" y="729" type="curve" smooth="yes"/>
      <point x="643" y="729" type="line"/>
      <point x="633" y="694" type="line"/>
      <point x="563" y="694" type="line"/>
      <point x="332" y="-160" type="line"/>
      <point x="293" y="-160" type="line"/>
      <point x="524" y="694" type="line"/>
      <point x="422" y="694" type="line"/>
      <point x="190" y="-160" type="line"/>
      <point x="152" y="-160" type="line"/>
    </contour>
  </outline>
</glyph>
<glyph name="guillemotright" format="2">
  <advance width="451"/>
  <unicode hex="00BB"/>
  <outline>
    <contour>
      <point x="145" y="29" type="line"/>
      <point x="311" y="233" type="line"/>
      <point x="256" y="438" type="line"/>
      <point x="273" y="449" type="line"/>
      <point x="298" y="400"/>
      <point x="320" y="360"/>
      <point x="340" y="327" type="curve" smooth="yes"/>
      <point x="359" y="294"/>
      <point x="380" y="263"/>
      <point x="403" y="233" type="curve"/>
      <point x="364" y="204"/>
      <point x="326" y="173"/>
      <point x="289" y="140" type="curve" smooth="yes"/>
      <point x="251" y="107"/>
      <point x="207" y="66"/>
      <point x="157" y="18" type="curve"/>
    </contour>
    <contour>
      <point x="74" y="86" type="line"/>
      <point x="183" y="233" type="line"/>
      <point x="154" y="381" type="line"/>
      <point x="171" y="391" type="line"/>
      <point x="198" y="323"/>
      <point x="225" y="270"/>
      <point x="252" y="233" type="curve"/>
      <point x="203" y="195"/>
      <point x="148" y="143"/>
      <point x="85" y="76" type="curve"/>
    </contour>
  </outline>
</glyph>
<glyph name="multiply" format="2">
  <advance width="576"/>
  <unicode hex="00D7"/>
  <outline>
    <contour>
      <point x="285" y="301" type="line"/>
      <point x="117" y="469" type="line"/>
      <point x="85" y="437" type="line"/>
      <point x="253" y="269" type="line"/>
      <point x="85" y="101" type="line"/>
      <point x="117" y="69" type="line"/>
      <point x="285" y="237" type="line"/>
      <point x="453" y="69" type="line"/>
      <point x="485" y="101" type="line"/>
      <point x="317" y="269" type="line"/>
      <point x="485" y="437" type="line"/>
      <point x="453" y="469" type="line"/>
    </contour>
  </outline>
</glyph>
<glyph name="germandbls" format="2">
  <advance width="556"/>
  <unicode hex="00DF"/>
  <outline>
    <contour>
      <point x="499" y="217" type="curve" smooth="yes"/>
      <point x="499" y="299"/>
      <point x="456" y="355"/>
      <point x="389" y="393" type="curve"/>
      <point x="459" y="410"/>
      <point x="536" y="455"/>
      <point x="536" y="560" type="curve" smooth="yes"/>
      <point x="536" y="636"/>
      <point x="480" y="692"/>
      <point x="401" y="692" type="curve" smooth="yes"/>
      <point x="247" y="692"/>
      <point x="171" y="473"/>
      <point x="122" y="322" type="curve" smooth="yes"/>
      <point x="42" y="74" type="line" smooth="yes"/>
      <point x="11" y="-20"/>
      <point x="-41" y="-218"/>
      <point x="-115" y="-218" type="curve" smooth="yes"/>
      <point x="-127" y="-218"/>
      <point x="-136" y="-212"/>
      <point x="-136" y="-203" type="curve" smooth="yes"/>
      <point x="-136" y="-183"/>
      <point x="-109" y="-175"/>
      <point x="-109" y="-142" type="curve" smooth="yes"/>
      <point x="-109" y="-111"/>
      <point x="-133" y="-89" name="hr01"/>
      <point x="-163" y="-89" type="curve" smooth="yes"/>
      <point x="-194" y="-89"/>
      <point x="-220" y="-110"/>
      <point x="-220" y="-156" type="curve" smooth="yes"/>
      <point x="-220" y="-202"/>
      <point x="-179" y="-248"/>
      <point x="-115" y="-248" type="curve" smooth="yes"/>
      <point x="13" y="-248"/>
      <point x="99" y="-50"/>
      <point x="184" y="202" type="curve"/>
      <point x="247" y="398" type="line" smooth="yes"/>
      <point x="279" y="496"/>
      <point x="322" y="663"/>
      <point x="407" y="663" type="curve" smooth="yes"/>
      <point x="465" y="663"/>
      <point x="464" y="593"/>
      <point x="449" y="525" type="curve" smooth="yes"/>
      <point x="431" y="443"/>
      <point x="389" y="414"/>
      <point x="332" y="414" type="curve" smooth="yes"/>
      <point x="327" y="414"/>
      <point x="321" y="414"/>
      <point x="316" y="415" type="curve"/>
      <point x="310" y="391" type="line"/>
      <point x="400" y="377"/>
      <point x="429" y="289"/>
      <point x="402" y="178" type="curve" smooth="yes"/>
      <point x="377" y="75"/>
      <point x="346" y="21"/>
      <point x="305" y="21" type="curve" smooth="yes"/>
      <point x="294" y="21"/>
      <point x="284" y="26"/>
      <point x="284" y="34" type="curve" smooth="yes"/>
      <point x="284" y="48"/>
      <point x="295" y="52"/>
      <point x="295" y="80" type="curve" smooth="yes"/>
      <point x="295" y="111"/>
      <point x="272" y="132" name="hr02"/>
      <point x="246" y="132" type="curve" smooth="yes"/>
      <point x="216" y="132"/>
      <point x="195" y="112"/>
      <point x="195" y="76" type="curve" smooth="yes"/>
      <point x="195" y="47"/>
      <point x="226" y="-8"/>
      <point x="310" y="-8" type="curve" smooth="yes"/>
      <point x="413" y="-8"/>
      <point x="499" y="94"/>
    </contour>
  </outline>
</glyph>
<glyph name="oslash" format="2">
  <advance width="454"/>
  <unicode hex="00F8"/>
  <outline>
    <component base="o"/>
    <contour>
      <point x="467" y="466" type="line"/>
      <point x="-86" y="0" type="line"/>
      <point x="-39" y="0" type="line"/>
      <point x="514" y="466" type="line"/>
    </contour>
  </outline>
</glyph>
<glyph name="florin" format="2">
  <advance width="553"/>
  <unicode hex="0192"/>
  <outline>
    <contour>
      <point x="-4" y="-244" type="curve" smooth="yes"/>
      <point x="-51" y="-244"/>
      <point x="-82" y="-206"/>
      <point x="-82" y="-170" type="curve" smooth="yes"/>
      <point x="-82" y="-133"/>
      <point x="-58" y="-106"/>
      <point x="-30" y="-106" type="curve" smooth="yes"/>
      <point x="-7" y="-106"/>
      <point x="4" y="-120"/>
      <point x="4" y="-140" type="curve" smooth="yes"/>
      <point x="4" y="-155"/>
      <point x="-3" y="-166"/>
      <point x="-12" y="-173" type="curve"/>
      <point x="-23" y="-178"/>
      <point x="-29" y="-186"/>
      <point x="-29" y="-196" type="curve" smooth="yes"/>
      <point x="-29" y="-209"/>
      <point x="-17" y="-219"/>
      <point x="0" y="-219" type="curve" smooth="yes"/>
      <point x="25" y="-219"/>
      <point x="48" y="-207"/>
      <point x="70" y="-184" type="curve" smooth="yes"/>
      <point x="92" y="-160"/>
      <point x="113" y="-113"/>
      <point x="132" y="-43" type="curve" smooth="yes"/>
      <point x="263" y="438" type="line"/>
      <point x="159" y="438" type="line"/>
      <point x="165" y="467" type="line"/>
      <point x="271" y="467" type="line"/>
      <point x="275" y="480" type="line" smooth="yes"/>
      <point x="292" y="533"/>
      <point x="309" y="575"/>
      <point x="327" y="608" type="curve" smooth="yes"/>
      <point x="363" y="675"/>
      <point x="421" y="719"/>
      <point x="492" y="719" type="curve" smooth="yes"/>
      <point x="537" y="719"/>
      <point x="569" y="681"/>
      <point x="569" y="645" type="curve" smooth="yes"/>
      <point x="569" y="608"/>
      <point x="546" y="582"/>
      <point x="517" y="582" type="curve" smooth="yes"/>
      <point x="496" y="582"/>
      <point x="483" y="595"/>
      <point x="483" y="615" type="curve" smooth="yes"/>
      <point x="483" y="630"/>
      <point x="491" y="641"/>
      <point x="500" y="648" type="curve"/>
      <point x="511" y="653"/>
      <point x="516" y="661"/>
      <point x="516" y="671" type="curve" smooth="yes"/>
      <point x="516" y="684"/>
      <point x="506" y="694"/>
      <point x="487" y="694" type="curve" smooth="yes"/>
      <point x="463" y="694"/>
      <point x="440" y="682"/>
      <point x="418" y="659" type="curve" smooth="yes"/>
      <point x="396" y="636"/>
      <point x="375" y="589"/>
      <point x="355" y="518" type="curve" smooth="yes"/>
      <point x="341" y="467" type="line"/>
      <point x="456" y="467" type="line"/>
      <point x="450" y="438" type="line"/>
      <point x="333" y="438" type="line"/>
      <point x="212" y="-5" type="line"/>
      <point x="198" y="-54"/>
      <point x="181" y="-96"/>
      <point x="161" y="-133" type="curve" smooth="yes"/>
      <point x="124" y="-200"/>
      <point x="65" y="-244"/>
    </contour>
  </outline>
</glyph>
<glyph name="breve" format="2">
  <advance width="250"/>
  <unicode hex="02D8"/>
  <anchor x="203" y="488" name="_accent1"/>
  <outline>
    <contour>
      <point x="87" y="658" type="line"/>
      <point x="92" y="581"/>
      <point x="156" y="532"/>
      <point x="232" y="532" type="curve" smooth="yes"/>
      <point x="315" y="532"/>
      <point x="378" y="577"/>
      <point x="383" y="658" type="curve"/>
      <point x="351" y="658" type="line"/>
      <point x="332" y="612"/>
      <point x="301" y="596"/>
      <point x="230" y="596" type="curve" smooth="yes"/>
      <point x="170" y="596"/>
      <point x="136" y="615"/>
      <point x="119" y="658" type="curve"/>
    </contour>
  </outline>
</glyph>
<glyph name="quoteright" format="2">
  <advance width="210"/>
  <unicode hex="2019"/>
  <outline>
    <contour>
      <point x="193" y="601" type="curve" smooth="yes"/>
      <point x="223" y="601"/>
      <point x="237" y="594"/>
      <point x="237" y="566" type="curve" smooth="yes"/>
      <point x="237" y="515"/>
      <point x="180" y="467"/>
      <point x="115" y="452" type="curve"/>
      <point x="122" y="427" type="line"/>
      <point x="195" y="441"/>
      <point x="277" y="493"/>
      <point x="277" y="609" type="curve" smooth="yes"/>
      <point x="277" y="685"/>
      <point x="244" y="722"/>
      <point x="193" y="722" type="curve" smooth="yes"/>
      <point x="157" y="722"/>
      <point x="132" y="692" name="hr01"/>
      <point x="132" y="662" type="curve" smooth="yes"/>
      <point x="132" y="631"/>
      <point x="157" y="601"/>
    </contour>
  </outline>
</glyph>
<glyph name="bullet" format="2">
  <advance width="394"/>
  <unicode hex="2022"/>
  <outline>
    <contour>
      <point x="96" y="410" type="curve" smooth="yes"/>
      <point x="96" y="331"/>
      <point x="161" y="266"/>
      <point x="240" y="266" type="curve" smooth="yes"/>
      <point x="319" y="266"/>
      <point x="384" y="331"/>
      <point x="384" y="410" type="curve" smooth="yes"/>
      <point x="384" y="489"/>
      <point x="319" y="554"/>
      <point x="240" y="554" type="curve" smooth="yes"/>
      <point x="161" y="554"/>
      <point x="96" y="489"/>
    </contour>
  </outline>
</glyph>
<glyph name="guilsinglleft" format="2">
  <advance width="317"/>
  <unicode hex="2039"/>
  <outline>
    <contour>
      <point x="185" y="18" type="line"/>
      <point x="160" y="67"/>
      <point x="138" y="107"/>
      <point x="119" y="140" type="curve" smooth="yes"/>
      <point x="100" y="173"/>
      <point x="78" y="204"/>
      <point x="55" y="233" type="curve"/>
      <point x="94" y="263"/>
      <point x="133" y="295"/>
      <point x="170" y="328" type="curve" smooth="yes"/>
      <point x="207" y="361"/>
      <point x="251" y="401"/>
      <point x="302" y="449" type="curve"/>
      <point x="313" y="438" type="line"/>
      <point x="147" y="233" type="line"/>
      <point x="203" y="29" type="line"/>
    </contour>
  </outline>
</glyph>
<glyph name="guilsinglright" format="2">
  <advance width="317"/>
  <unicode hex="203A"/>
  <outline>
    <contour>
      <point x="5" y="29" type="line"/>
      <point x="171" y="233" type="line"/>
      <point x="116" y="438" type="line"/>
      <point x="133" y="449" type="line"/>
      <point x="158" y="400"/>
      <point x="180" y="360"/>
      <point x="200" y="327" type="curve" smooth="yes"/>
      <point x="219" y="294"/>
      <point x="240" y="263"/>
      <point x="263" y="233" type="curve"/>
      <point x="224" y="204"/>
      <point x="186" y="173"/>
      <point x="149" y="140" type="curve" smooth="yes"/>
      <point x="111" y="107"/>
      <point x="67" y="66"/>
      <point x="17" y="18" type="curve"/>
    </contour>
  </outline>
</glyph>
<glyph name="versicle" format="2">
  <advance width="708"/>
  <unicode hex="2123"/>
  <outline>
    <contour>
      <point x="379" y="127" type="line"/>
      <point x="325" y="571" type="line" smooth="yes"/>
      <point x="318" y="630"/>
      <point x="341" y="645"/>
      <point x="390" y="645" type="curve" smooth="yes"/>
      <point x="418" y="645" type="line"/>
      <point x="428" y="680" type="line"/>
      <point x="143" y="680" type="line"/>
      <point x="133" y="645" type="line"/>
      <point x="157" y="645" type="line" smooth="yes"/>
      <point x="190" y="645"/>
      <point x="215" y="638"/>
      <point x="223" y="574" type="curve" smooth="yes"/>
      <point x="295" y="-12" type="line"/>
      <point x="344" y="-12" type="line"/>
      <point x="683" y="564" type="line"/>
      <point x="729" y="644"/>
      <point x="766" y="645"/>
      <point x="801" y="645" type="curve" smooth="yes"/>
      <point x="816" y="645" type="line"/>
      <point x="826" y="680" type="line"/>
      <point x="581" y="680" type="line"/>
      <point x="571" y="645" type="line"/>
      <point x="598" y="645" type="line" smooth="yes"/>
      <point x="658" y="645"/>
      <point x="677" y="633"/>
      <point x="636" y="563" type="curve" smooth="yes"/>
    </contour>
    <contour>
      <point x="510" y="700" type="curve"/>
      <point x="433" y="571"/>
      <point x="355" y="443"/>
      <point x="279" y="315" type="curve" smooth="yes"/>
      <point x="257" y="277"/>
      <point x="235" y="239"/>
      <point x="214" y="204" type="curve" smooth="yes"/>
      <point x="205" y="190"/>
      <point x="198" y="176"/>
      <point x="191" y="167" type="curve" smooth="yes"/>
      <point x="185" y="159"/>
      <point x="180" y="149"/>
      <point x="178" y="141" type="curve"/>
      <point x="204" y="120" type="line"/>
      <point x="285" y="254"/>
      <point x="365" y="389"/>
      <point x="445" y="523" type="curve" smooth="yes"/>
      <point x="474" y="571"/>
      <point x="502" y="619"/>
      <point x="531" y="667" type="curve" smooth="yes"/>
      <point x="557" y="710" type="line" smooth="yes"/>
      <point x="562" y="718"/>
      <point x="567" y="726"/>
      <point x="571" y="735" type="curve"/>
      <point x="564" y="741"/>
      <point x="552" y="752"/>
      <point x="543" y="755" type="curve"/>
      <point x="542" y="754"/>
      <point x="541" y="752"/>
      <point x="540" y="750" type="curve" smooth="yes"/>
      <point x="528" y="737"/>
      <point x="517" y="733"/>
      <point x="498" y="735" type="curve" smooth="yes"/>
      <point x="448" y="742"/>
      <point x="431" y="788"/>
      <point x="406" y="792" type="curve" smooth="yes"/>
      <point x="386" y="795"/>
      <point x="371" y="782"/>
      <point x="368" y="762" type="curve" smooth="yes"/>
      <point x="365" y="743"/>
      <point x="378" y="727"/>
      <point x="396" y="725" type="curve" smooth="yes"/>
      <point x="400" y="724"/>
      <point x="408" y="725"/>
      <point x="411" y="725" type="curve"/>
      <point x="416" y="728"/>
      <point x="423" y="731"/>
      <point x="428" y="730" type="curve"/>
      <point x="432" y="728"/>
      <point x="446" y="719"/>
      <point x="450" y="716" type="curve" smooth="yes"/>
      <point x="460" y="709"/>
      <point x="473" y="704"/>
      <point x="484" y="702" type="curve" smooth="yes"/>
      <point x="493" y="701"/>
      <point x="502" y="701"/>
    </contour>
  </outline>
</glyph>
